<?xml version="1.0" encoding="iso-8859-1"?>
<!-- Generator: Adobe Illustrator 19.0.0, SVG Export Plug-In . SVG Version: 6.00 Build 0)  -->
<svg version="1.1" id="Capa_1" xmlns="http://www.w3.org/2000/svg" xmlns:xlink="http://www.w3.org/1999/xlink" x="0px" y="0px"
	 viewBox="0 0 512 512" style="enable-background:new 0 0 512 512;" xml:space="preserve">
<g>
	<circle style="fill:#A4C2F7;" cx="256" cy="256" r="247.467"/>
	<ellipse style="fill:#E3E7F2;" cx="243.2" cy="256" rx="234.667" ry="247.467"/>
	<path style="fill:#FFFFFF;" d="M256,503.467c2.204,0,4.38-0.108,6.57-0.167C135.856,499.806,34.133,390.469,34.133,256
		S135.856,12.194,262.57,8.7c-2.19-0.058-4.366-0.167-6.57-0.167C119.328,8.533,8.533,119.328,8.533,256
		S119.328,503.467,256,503.467L256,503.467z"/>
	<g>
		
			<linearGradient id="SVGID_1_" gradientUnits="userSpaceOnUse" x1="-48.6809" y1="652.1773" x2="-47.9659" y2="651.4624" gradientTransform="matrix(219.4408 0 0 -219.4406 10968.1299 143183.75)">
			<stop  offset="0" style="stop-color:#D4E1F4"/>
			<stop  offset="0.1717" style="stop-color:#D4E1F4"/>
			<stop  offset="0.2" style="stop-color:#D4E1F4"/>
			<stop  offset="0.2001" style="stop-color:#DAE4F4"/>
			<stop  offset="0.2007" style="stop-color:#EBEBF4"/>
			<stop  offset="0.2014" style="stop-color:#F6F1F4"/>
			<stop  offset="0.2023" style="stop-color:#FDF4F4"/>
			<stop  offset="0.205" style="stop-color:#FFF5F4"/>
			<stop  offset="0.2522" style="stop-color:#FFF5F4"/>
			<stop  offset="0.26" style="stop-color:#FFF5F4"/>
			<stop  offset="0.26" style="stop-color:#D4E1F4"/>
			<stop  offset="0.3974" style="stop-color:#D4E1F4"/>
			<stop  offset="0.42" style="stop-color:#D4E1F4"/>
			<stop  offset="0.4201" style="stop-color:#DAE4F4"/>
			<stop  offset="0.4207" style="stop-color:#EBEBF4"/>
			<stop  offset="0.4214" style="stop-color:#F6F1F4"/>
			<stop  offset="0.4223" style="stop-color:#FDF4F4"/>
			<stop  offset="0.425" style="stop-color:#FFF5F4"/>
			<stop  offset="0.4894" style="stop-color:#FFF5F4"/>
			<stop  offset="0.5" style="stop-color:#FFF5F4"/>
			<stop  offset="0.5" style="stop-color:#F9F2F4"/>
			<stop  offset="0.5001" style="stop-color:#E8EBF4"/>
			<stop  offset="0.5003" style="stop-color:#DDE5F4"/>
			<stop  offset="0.5005" style="stop-color:#D6E2F4"/>
			<stop  offset="0.501" style="stop-color:#D4E1F4"/>
			<stop  offset="0.7062" style="stop-color:#D4E1F4"/>
			<stop  offset="0.74" style="stop-color:#D4E1F4"/>
			<stop  offset="0.741" style="stop-color:#FFF5F4"/>
			<stop  offset="0.8346" style="stop-color:#FFF5F4"/>
			<stop  offset="0.85" style="stop-color:#FFF5F4"/>
			<stop  offset="0.851" style="stop-color:#D4E1F4"/>
		</linearGradient>
		<path style="fill:url(#SVGID_1_);" d="M483.972,159.569c-25.148-59.233-72.307-106.392-131.541-131.54
			c-54.102,11.483-91.48,61.064-87.628,116.237s47.759,99.079,102.932,102.931C422.908,251.049,472.49,213.671,483.972,159.569
			L483.972,159.569z"/>
		
			<linearGradient id="SVGID_2_" gradientUnits="userSpaceOnUse" x1="-48.6534" y1="652.4091" x2="-47.9386" y2="651.6943" gradientTransform="matrix(288.2065 0 0 -288.2001 14092.1182 188260.4531)">
			<stop  offset="0" style="stop-color:#D4E1F4"/>
			<stop  offset="0.1717" style="stop-color:#D4E1F4"/>
			<stop  offset="0.2" style="stop-color:#D4E1F4"/>
			<stop  offset="0.2001" style="stop-color:#DAE4F4"/>
			<stop  offset="0.2007" style="stop-color:#EBEBF4"/>
			<stop  offset="0.2014" style="stop-color:#F6F1F4"/>
			<stop  offset="0.2023" style="stop-color:#FDF4F4"/>
			<stop  offset="0.205" style="stop-color:#FFF5F4"/>
			<stop  offset="0.2522" style="stop-color:#FFF5F4"/>
			<stop  offset="0.26" style="stop-color:#FFF5F4"/>
			<stop  offset="0.26" style="stop-color:#D4E1F4"/>
			<stop  offset="0.3974" style="stop-color:#D4E1F4"/>
			<stop  offset="0.42" style="stop-color:#D4E1F4"/>
			<stop  offset="0.4201" style="stop-color:#DAE4F4"/>
			<stop  offset="0.4207" style="stop-color:#EBEBF4"/>
			<stop  offset="0.4214" style="stop-color:#F6F1F4"/>
			<stop  offset="0.4223" style="stop-color:#FDF4F4"/>
			<stop  offset="0.425" style="stop-color:#FFF5F4"/>
			<stop  offset="0.4894" style="stop-color:#FFF5F4"/>
			<stop  offset="0.5" style="stop-color:#FFF5F4"/>
			<stop  offset="0.5" style="stop-color:#F9F2F4"/>
			<stop  offset="0.5001" style="stop-color:#E8EBF4"/>
			<stop  offset="0.5003" style="stop-color:#DDE5F4"/>
			<stop  offset="0.5005" style="stop-color:#D6E2F4"/>
			<stop  offset="0.501" style="stop-color:#D4E1F4"/>
			<stop  offset="0.7062" style="stop-color:#D4E1F4"/>
			<stop  offset="0.74" style="stop-color:#D4E1F4"/>
			<stop  offset="0.741" style="stop-color:#FFF5F4"/>
			<stop  offset="0.8346" style="stop-color:#FFF5F4"/>
			<stop  offset="0.85" style="stop-color:#FFF5F4"/>
			<stop  offset="0.851" style="stop-color:#D4E1F4"/>
		</linearGradient>
		<path style="fill:url(#SVGID_2_);" d="M162.133,204.8C90.786,204.84,30.074,256.788,19,327.27
			C42.998,406.785,105.215,469.002,184.73,493c74.791-11.754,127.945-79.076,122.027-154.553
			C300.839,262.97,237.842,204.754,162.133,204.8z"/>
	</g>
	<g>
		<path style="fill:#A4C2F7;" d="M213.869,12.179C155.881,22.17,103.36,52.52,65.749,97.773c4.202,8.158,3.608,17.961-1.549,25.552
			l-7.036,10.387l16.709,16.708l10.548-7.735c7.011-5.141,16.168-6.332,24.261-3.156c8.093,3.177,13.994,10.278,15.636,18.816
			l2.369,12.321h23.63l1.399-9.094c1.348-8.759,7.171-16.18,15.359-19.571c8.188-3.391,17.552-2.262,24.699,2.979l7.419,5.44
			l16.709-16.708l-7.036-10.387c-4.876-7.198-5.725-16.392-2.248-24.361c3.476-7.969,10.793-13.601,19.386-14.924l12.929-1.99
			V58.421l-12.321-2.371c-8.538-1.642-15.639-7.543-18.816-15.636c-3.177-8.093-1.986-17.249,3.155-24.26L213.869,12.179z"/>
		<circle style="fill:#A4C2F7;" cx="162.133" cy="349.867" r="59.733"/>
		<path style="fill:#A4C2F7;" d="M499.54,299.708c-5.657-4.88-9.379-11.626-10.49-19.015l-2.486-16.16h-29.539l-3.825,19.891
			c-2.013,10.466-9.151,19.219-18.997,23.298c-9.846,4.078-21.083,2.936-29.907-3.042l-16.77-11.36l-20.887,20.887l9.669,13.185
			c6.427,8.764,7.916,20.209,3.945,30.325c-3.971,10.116-12.847,17.493-23.52,19.545l-15.401,2.961v29.54l16.161,2.485
			c10.741,1.653,19.887,8.693,24.233,18.654c4.346,9.961,3.285,21.454-2.81,30.452l-8.796,12.983l0.809,0.811
			C438.561,439.632,486.019,374.893,499.54,299.708L499.54,299.708z"/>
	</g>
	<g>
		<circle style="fill:#E3E7F2;" cx="162.133" cy="349.867" r="25.6"/>
		<circle style="fill:#E3E7F2;" cx="375.467" cy="136.533" r="25.6"/>
		<path style="fill:#E3E7F2;" d="M102.4,68.267c-0.043,17.835,13.652,32.696,31.43,34.108c17.779,1.412,33.648-11.101,36.421-28.718
			c2.773-17.618-8.484-34.401-25.837-38.519c-14.617,7.402-28.463,16.237-41.333,26.375C102.631,63.736,102.402,65.998,102.4,68.267
			L102.4,68.267z"/>
		<path style="fill:#E3E7F2;" d="M440.197,421.217c20.453-22.776,36.5-49.149,47.328-77.781c-20.559-6.39-42.829,2.028-54.02,20.42
			C422.314,382.247,425.073,405.895,440.197,421.217L440.197,421.217z"/>
	</g>
	<g>
		<path style="fill:#428DFF;" d="M315.729,426.667c-1.193,0.001-2.372-0.249-3.462-0.733l-21.1-9.375
			c-4.296-1.922-6.225-6.958-4.314-11.258s6.942-6.242,11.247-4.342l21.1,9.375c3.685,1.637,5.721,5.629,4.883,9.573
			C323.245,423.85,319.761,426.67,315.729,426.667z"/>
		<path style="fill:#428DFF;" d="M221.021,225.9c-2.889,0.001-5.582-1.461-7.156-3.883c-1.574-2.423-1.815-5.477-0.64-8.117
			l9.375-21.1c1.239-2.787,3.87-4.701,6.902-5.022c3.033-0.321,6.006,1.001,7.8,3.467c1.794,2.466,2.136,5.702,0.898,8.488
			l-9.375,21.1C227.452,223.915,224.394,225.9,221.021,225.9z"/>
		<path style="fill:#428DFF;" d="M297.238,305.858c-4.106,0.001-7.63-2.923-8.387-6.958c-0.757-4.036,1.468-8.038,5.295-9.525
			l18.496-7.192c2.842-1.113,6.062-0.623,8.444,1.286s3.563,4.945,3.096,7.961c-0.467,3.016-2.51,5.554-5.357,6.653l-18.496,7.192
			C299.344,305.662,298.296,305.86,297.238,305.858L297.238,305.858z"/>
		<path style="fill:#428DFF;" d="M109.592,223.3c-3.52,0-6.678-2.161-7.954-5.442l-7.192-18.5c-1.707-4.393,0.47-9.338,4.863-11.046
			s9.338,0.47,11.046,4.863l7.192,18.5c0.82,2.109,0.769,4.458-0.143,6.529c-0.912,2.071-2.61,3.695-4.719,4.513
			C111.699,223.104,110.65,223.302,109.592,223.3L109.592,223.3z"/>
		<path style="fill:#428DFF;" d="M162.133,384C143.282,384,128,368.718,128,349.867c0-18.851,15.282-34.133,34.133-34.133
			s34.133,15.282,34.133,34.133C196.247,368.71,180.976,383.98,162.133,384L162.133,384z M162.133,332.8
			c-9.426,0-17.067,7.641-17.067,17.067c0,9.426,7.641,17.067,17.067,17.067c9.426,0,17.067-7.641,17.067-17.067
			C179.189,340.445,171.555,332.811,162.133,332.8z"/>
		<path style="fill:#428DFF;" d="M375.467,170.667c-18.851,0-34.133-15.282-34.133-34.133s15.282-34.133,34.133-34.133
			c18.851,0,34.133,15.282,34.133,34.133C409.58,155.376,394.31,170.647,375.467,170.667z M375.467,119.467
			c-9.426,0-17.067,7.641-17.067,17.067c0,9.426,7.641,17.067,17.067,17.067c9.426,0,17.067-7.641,17.067-17.067
			C392.523,127.112,384.888,119.477,375.467,119.467L375.467,119.467z"/>
		<path style="fill:#428DFF;" d="M375.467,273.067c-2.263,0.001-4.434-0.898-6.035-2.499c-1.6-1.6-2.499-3.771-2.499-6.035v-17.067
			c0-4.713,3.821-8.533,8.533-8.533c4.713,0,8.533,3.821,8.533,8.533v17.067c0.001,2.263-0.898,4.434-2.499,6.035
			C379.901,272.168,377.73,273.067,375.467,273.067z"/>
		<path style="fill:#428DFF;" d="M264.533,145.067h-17.067c-4.713,0-8.533-3.821-8.533-8.533s3.821-8.533,8.533-8.533h17.067
			c4.713,0,8.533,3.821,8.533,8.533S269.246,145.067,264.533,145.067z"/>
		<path style="fill:#428DFF;" d="M284.958,235.575c-3.451-0.001-6.562-2.08-7.882-5.268c-1.32-3.188-0.591-6.858,1.849-9.298
			l12.067-12.067c2.156-2.156,5.297-2.997,8.242-2.208c2.944,0.789,5.244,3.089,6.033,6.033c0.789,2.944-0.053,6.086-2.208,8.242
			l-12.067,12.067C289.393,234.678,287.222,235.578,284.958,235.575z"/>
		<path style="fill:#428DFF;" d="M465.975,235.575c-2.264,0.003-4.435-0.897-6.033-2.5l-12.067-12.067
			c-3.332-3.332-3.332-8.735,0-12.067c3.332-3.332,8.735-3.332,12.067,0l12.067,12.067c2.44,2.44,3.169,6.11,1.849,9.298
			C472.537,233.495,469.427,235.574,465.975,235.575L465.975,235.575z"/>
		<path style="fill:#428DFF;" d="M297.025,66.625c-2.264,0.003-4.435-0.897-6.033-2.5l-12.067-12.066
			c-3.322-3.334-3.318-8.728,0.01-12.056c3.328-3.328,8.722-3.333,12.056-0.01l12.067,12.067c2.44,2.44,3.169,6.11,1.849,9.298
			C303.587,64.545,300.476,66.624,297.025,66.625L297.025,66.625z"/>
		<path style="fill:#428DFF;" d="M256,512C114.615,512,0,397.385,0,256S114.615,0,256,0s256,114.615,256,256
			C511.84,397.319,397.319,511.84,256,512z M256,17.067C124.041,17.067,17.067,124.041,17.067,256S124.041,494.933,256,494.933
			S494.933,387.959,494.933,256C494.785,124.102,387.898,17.215,256,17.067z"/>
		<path style="fill:#428DFF;" d="M375.467,256c-61.153,0.005-112.435-46.173-118.816-106.992
			c-6.382-60.819,34.198-116.636,94.02-129.324c1.705-0.373,3.485-0.201,5.088,0.492c61.18,26.151,109.918,74.888,136.071,136.067
			c0.679,1.607,0.851,3.384,0.492,5.092C480.441,216.419,431.819,255.81,375.467,256z M351.604,36.966
			c-48.991,11.739-82.164,57.37-78.219,107.593s43.837,90.114,94.059,94.06s95.854-29.228,107.593-78.219
			C450.732,105.298,406.706,61.272,351.604,36.966z"/>
		<path style="fill:#428DFF;" d="M184.73,501.533c-0.831,0.002-1.658-0.119-2.454-0.358
			c-82.381-24.621-146.827-89.069-171.447-171.45c-0.37-1.225-0.459-2.519-0.258-3.783
			c12.209-77.663,81.118-133.551,159.629-129.465c78.511,4.086,141.246,66.826,145.327,145.337
			c4.081,78.511-51.812,147.416-129.476,159.62C185.613,501.5,185.172,501.533,184.73,501.533z M27.742,326.683
			c23.199,75.371,82.2,134.374,157.571,157.575c68.383-11.743,117.065-72.935,113.135-142.208
			c-3.93-69.273-59.222-124.566-128.494-128.498C100.68,209.62,39.487,258.3,27.742,326.683L27.742,326.683z"/>
		<path style="fill:#428DFF;" d="M150.317,179.2h-23.629c-4.09,0.001-7.605-2.901-8.379-6.917l-2.371-12.317
			c-1.087-5.666-5.001-10.38-10.371-12.49c-5.37-2.11-11.446-1.321-16.1,2.09L78.921,157.3c-3.396,2.494-8.104,2.133-11.08-0.85
			l-16.713-16.7c-2.891-2.892-3.325-7.429-1.033-10.817l7.037-10.392c3.413-5.038,3.792-11.541,0.987-16.942
			c-1.521-3.032-1.1-6.677,1.071-9.283c38.924-46.796,93.252-78.188,153.233-88.542c3.43-0.587,6.873,0.967,8.702,3.928
			s1.676,6.735-0.385,9.539l-2.917,3.967c-3.462,4.627-4.252,10.727-2.083,16.083c2.056,5.406,6.792,9.342,12.483,10.375
			l12.317,2.367c4.02,0.773,6.925,4.29,6.926,8.383V82.05c-0.001,4.211-3.072,7.792-7.233,8.433l-12.929,1.992
			c-5.703,0.875-10.56,4.612-12.867,9.901c-2.307,5.289-1.742,11.39,1.496,16.166l7.037,10.392
			c2.292,3.388,1.858,7.925-1.033,10.817l-16.713,16.7c-2.974,2.982-7.681,3.343-11.075,0.85l-7.417-5.433
			c-4.743-3.477-10.956-4.226-16.389-1.976s-9.298,7.172-10.194,12.984l-1.4,9.092C158.108,176.128,154.527,179.199,150.317,179.2z
			 M133.733,162.133h9.262l0.288-1.858c1.8-11.708,9.583-21.626,20.526-26.159c10.944-4.533,23.46-3.022,33.011,3.984l1.513,1.108
			l6.55-6.542l-3.083-4.558c-6.517-9.62-7.651-21.909-3.004-32.559s14.427-18.176,25.912-19.941l5.692-0.875v-9.267l-5.396-1.033
			c-8.923-1.724-16.782-6.954-21.819-14.519s-6.829-16.834-4.977-25.731C150.576,36.07,107.758,62.331,75.571,99.4
			c3.036,9.724,1.449,20.302-4.304,28.708l-3.083,4.558l6.546,6.542l4.646-3.408c9.372-6.872,21.611-8.462,32.428-4.214
			c10.817,4.248,18.702,13.743,20.893,25.156L133.733,162.133z"/>
		<path style="fill:#428DFF;" d="M136.533,110.933c-12.8,0.015-24.929-5.725-33.034-15.632c-8.105-9.907-11.328-22.933-8.778-35.476
			c0.399-1.982,1.491-3.757,3.079-5.008c13.316-10.493,27.64-19.637,42.763-27.3c1.8-0.912,3.867-1.154,5.829-0.683
			c21.056,4.982,35.038,24.95,32.519,46.44S158.17,110.956,136.533,110.933z M111.025,66.15c-0.062,0.708-0.092,1.417-0.092,2.116
			c-0.037,12.998,9.672,23.961,22.58,25.495c12.908,1.533,24.915-6.85,27.925-19.495s-3.936-25.538-16.15-29.983
			C133.268,50.59,121.806,57.905,111.025,66.15L111.025,66.15z"/>
		<path style="fill:#428DFF;" d="M162.133,418.133c-37.703,0-68.267-30.564-68.267-68.267s30.564-68.267,68.267-68.267
			s68.267,30.564,68.267,68.267C230.357,387.551,199.818,418.09,162.133,418.133L162.133,418.133z M162.133,298.667
			c-28.277,0-51.2,22.923-51.2,51.2c0,28.277,22.923,51.2,51.2,51.2s51.2-22.923,51.2-51.2
			C213.302,321.603,190.398,298.698,162.133,298.667L162.133,298.667z"/>
		<path style="fill:#428DFF;" d="M370.933,483.683c-2.265,0.001-4.437-0.898-6.038-2.5l-0.808-0.808
			c-2.893-2.891-3.327-7.43-1.033-10.817l8.796-12.983c4.457-6.575,5.234-14.976,2.058-22.257
			c-3.176-7.281-9.861-12.427-17.713-13.634l-16.158-2.483c-4.163-0.641-7.236-4.223-7.237-8.434v-29.542
			c0.001-4.093,2.906-7.61,6.925-8.383l15.4-2.958c7.799-1.499,14.286-6.889,17.187-14.282s1.811-15.757-2.887-22.16l-9.667-13.183
			c-2.489-3.398-2.128-8.104,0.85-11.083l20.883-20.892c2.896-2.887,7.431-3.32,10.821-1.033l16.771,11.366
			c6.448,4.368,14.659,5.203,21.854,2.223c7.195-2.98,12.412-9.376,13.883-17.023l3.825-19.892c0.769-4.02,4.286-6.927,8.379-6.925
			h29.537c4.211,0.001,7.791,3.072,8.433,7.233l2.488,16.158c0.805,5.392,3.52,10.316,7.65,13.875
			c2.271,1.967,3.338,4.984,2.808,7.942C493.756,378.9,444.721,445.792,374.9,482.7
			C373.678,483.348,372.316,483.686,370.933,483.683L370.933,483.683z M349.867,402.442l8.925,1.375
			c11.018,1.701,20.837,7.893,27.121,17.102c6.284,9.209,8.47,20.61,6.037,31.49c50.855-35.412,86.089-89.076,98.367-149.816
			c-5.185-5.766-8.559-12.93-9.7-20.6l-1.375-8.925h-15.167l-2.496,12.967c-2.555,13.284-11.613,24.395-24.11,29.573
			c-12.497,5.178-26.76,3.729-37.96-3.856l-10.933-7.417l-10.725,10.733l5.342,7.275c8.157,11.125,10.047,25.653,5.007,38.495
			c-5.04,12.842-16.306,22.206-29.853,24.814l-8.479,1.625V402.442z"/>
		<path style="fill:#428DFF;" d="M440.196,429.75c-2.283-0.002-4.471-0.917-6.075-2.542c-17.846-18.116-21.09-46.045-7.872-67.769
			c13.218-21.724,39.514-31.679,63.805-24.156c2.246,0.699,4.104,2.293,5.137,4.406s1.147,4.559,0.318,6.76
			c-11.178,29.632-27.782,56.921-48.962,80.467c-1.573,1.751-3.797,2.776-6.15,2.833L440.196,429.75z M473.6,349.867
			c-13.781,0.001-26.504,7.386-33.341,19.351c-6.837,11.965-6.739,26.676,0.257,38.549c14.436-17.5,26.29-36.979,35.2-57.842
			C475.013,349.884,474.308,349.867,473.6,349.867z"/>
	</g>
</g>
<g>
</g>
<g>
</g>
<g>
</g>
<g>
</g>
<g>
</g>
<g>
</g>
<g>
</g>
<g>
</g>
<g>
</g>
<g>
</g>
<g>
</g>
<g>
</g>
<g>
</g>
<g>
</g>
<g>
</g>
</svg>
